<?xml version="1.0" encoding="utf-8"?>
<!-- Generator: Adobe Illustrator 19.2.1, SVG Export Plug-In . SVG Version: 6.00 Build 0)  -->
<svg version="1.1" xmlns="http://www.w3.org/2000/svg" xmlns:xlink="http://www.w3.org/1999/xlink" x="0px" y="0px"
	 viewBox="0 0 620 300" style="enable-background:new 0 0 620 300;" xml:space="preserve">
<style type="text/css">
	.st0{fill:#D6CEAA;}
	.st1{fill:#53A570;}
	.st2{fill:none;stroke:#565656;stroke-width:4;stroke-linecap:round;stroke-linejoin:round;stroke-miterlimit:10;}
	.st3{fill:#F1EABD;}
	.st4{fill:#565656;}
	.st5{fill:#43BD4C;}
	.st6{fill:#EDEBE4;}
	.st7{fill:none;}
	.st8{fill:#E73527;}
</style>
<g id="back_1_">
	<rect x="217.7" y="168.6" class="st0" width="156.7" height="5"/>
	<path class="st0" d="M292,184.8h-63.8c-1.4,0-2.5,1.1-2.5,2.5v0c0,1.4,1.1,2.5,2.5,2.5H292c1.4,0,2.5-1.1,2.5-2.5v0
		C294.5,185.9,293.4,184.8,292,184.8z"/>
	<path class="st0" d="M368.6,184.8L368.6,184.8c-1.4,0-2.5,1.1-2.5,2.5v0c0,1.4,1.1,2.5,2.5,2.5l0,0c1.4,0,2.5-1.1,2.5-2.5v0
		C371.1,185.9,370,184.8,368.6,184.8z"/>
	<path class="st0" d="M358.3,184.8L358.3,184.8c-1.4,0-2.5,1.1-2.5,2.5v0c0,1.4,1.1,2.5,2.5,2.5h0c1.4,0,2.5-1.1,2.5-2.5v0
		C360.8,185.9,359.6,184.8,358.3,184.8z"/>
	<g id="back">
		<rect class="st1" width="620" height="300"/>
	</g>
</g>
<g id="cord">
	<path class="st2" d="M41.6,182H22.9c-3.8,0-6.9,3-6.9,6.6v23.9c0,3.7,3.1,6.6,6.9,6.6h33c3.8,0,6.9,3,6.9,6.6v0
		c0,3.7-3.1,6.6-6.9,6.6h-33c-3.8,0-6.9,3-6.9,6.6v1.8c0,3.7,3.1,6.6,6.9,6.6H195c3.8,0,6.9-3,6.9-6.6v-40.7c0-3.7,3.1-6.6,6.9-6.6
		H254"/>
	<path class="st2" d="M415.3,192.3"/>
	<path class="st2" d="M415,192h21.2c6.6,0,12-4.4,12-9.8v-62.4c0-5.4,5.4-9.8,12-9.8h22.4"/>
</g>
<g id="computer">
	<rect x="253.1" y="173.6" class="st0" width="156.7" height="5.7"/>
	<polygon id="keyboard" class="st3" points="414.5,211 247.5,211 237,238 237,238 237,249 425,249 425,238 	"/>
	<rect x="247.7" y="178.7" class="st3" width="167.6" height="27.3"/>
	<rect x="247.7" y="60" class="st3" width="167.6" height="113.6"/>
	<path id="bezel" class="st0" d="M402,80c0-5-4-9-9-9H270c-5,0-9,4-9,9v75c0,5,4,9,9,9h123c5,0,9-4,9-9V80z M393,149c0,4.2-3.3,8-7.6,8H277.6
		c-4.2,0-7.6-3.7-7.6-8V86.5c0-4.2,3.3-7.5,7.6-7.5h107.8c4.3,0,7.6,3.2,7.6,7.5V149z"/>
	<path class="st0" d="M333.1,189.8h-63.8c-1.4,0-2.5,1.1-2.5,2.5l0,0c0,1.4,1.1,2.5,2.5,2.5h63.8c1.4,0,2.5-1.1,2.5-2.5l0,0
		C335.6,190.9,334.5,189.8,333.1,189.8z"/>
	<path class="st0" d="M386.5,189.8L386.5,189.8c-1.4,0-2.5,1.1-2.5,2.5l0,0c0,1.4,1.1,2.5,2.5,2.5l0,0c1.4,0,2.5-1.1,2.5-2.5l0,0
		C389,190.9,387.9,189.8,386.5,189.8z"/>
	<path class="st0" d="M398.5,189.8L398.5,189.8c-1.4,0-2.5,1.1-2.5,2.5l0,0c0,1.4,1.1,2.5,2.5,2.5l0,0c1.4,0,2.5-1.1,2.5-2.5l0,0
		C401,190.9,399.8,189.8,398.5,189.8z"/>
	<g id="screen">
		<path class="st4" d="M385.4,78.8H277.6c-4.3,0-7.7,3.5-7.7,7.7V149c0,4.3,3.5,7.7,7.7,7.7h107.8c4.3,0,7.7-3.5,7.7-7.7V86.5
			C393.1,82.2,389.7,78.8,385.4,78.8z"/>
	</g>
</g>
<g id="keys">
	<g>
		<g>
			<rect id = "key_1" x="254.9" y="218.1" fill="#D6CEAA" width="9.6" height="9.6"/>
			<rect id = "key_2" x="269.2" y="218.1" fill="#D6CEAA" width="9.6" height="9.6"/>
			<rect id = "key_3" x="283.6" y="218.1" fill="#D6CEAA" width="9.6" height="9.6"/>
			<rect id = "key_4" x="298" y="218.1" fill="#D6CEAA" width="9.6" height="9.6"/>
			<rect id = "key_5" x="312.3" y="218.1" fill="#D6CEAA" width="9.6" height="9.6"/>
			<rect id = "key_6" x="326.7" y="218.1" fill="#D6CEAA" width="9.6" height="9.6"/>
			<rect id = "key_7" x="341.1" y="218.1" fill="#D6CEAA" width="9.6" height="9.6"/>
			<rect id = "key_8" x="355.4" y="218.1" fill="#D6CEAA" width="9.6" height="9.6"/>
			<rect id = "key_9" x="369.8" y="218.1" fill="#D6CEAA" width="9.6" height="9.6"/>
			<rect id = "key_10" x="384.1" y="218.1" fill="#D6CEAA" width="9.6" height="9.6"/>
			<rect id = "key_11" x="398.5" y="218.1" fill="#D6CEAA" width="9.6" height="9.6"/>
		</g>
		<g>
			<rect id = "key_12" x="247.7" y="231.3" fill="#D6CEAA" width="9.6" height="9.6"/>
			<rect id = "key_13" x="262.1" y="231.3" fill="#D6CEAA" width="9.6" height="9.6"/>
			<rect id = "key_14" x="276.4" y="231.3" fill="#D6CEAA" width="9.6" height="9.6"/>
			<rect id = "key_15" x="290.8" y="231.3" fill="#D6CEAA" width="9.6" height="9.6"/>
			<rect id = "key_16" x="305.1" y="231.3" fill="#D6CEAA" width="9.6" height="9.6"/>
			<rect id = "key_17" x="319.5" y="231.3" fill="#D6CEAA" width="9.6" height="9.6"/>
			<rect id = "key_18" x="333.9" y="231.3" fill="#D6CEAA" width="9.6" height="9.6"/>
			<rect id = "key_19" x="348.2" y="231.3" fill="#D6CEAA" width="9.6" height="9.6"/>
			<rect id = "key_20" x="362.6" y="231.3" fill="#D6CEAA" width="9.6" height="9.6"/>
			<rect id = "key_21" x="377" y="231.3" fill="#D6CEAA" width="9.6" height="9.6"/>
			<rect id = "key_22" x="391.3" y="231.3" fill="#D6CEAA" width="9.6" height="9.6"/>
			<rect id = "key_23" x="405.7" y="231.3" fill="#D6CEAA" width="9.6" height="9.6"/>
		</g>
	</g>
</g>
<g id="recorder">
	<rect x="39.4" y="84.6" class="st3" width="147" height="122"/>
	<path class="st0" d="M53.3,92.5h119.3c4.4,0,8,3.6,8,8V192c0,4.4-3.6,8-8,8H53.3c-4.4,0-8-3.6-8-8v-91.5
		C45.3,96.1,48.9,92.5,53.3,92.5z"/>
	<path class="st3" d="M52,167v22.9c0,2.3,1.3,4.1,3.8,4.1h112.7c2.5,0,4.5-1.8,4.5-4.1V167H52z"/>
	<path class="st0" d="M163.6,183.5L163.6,183.5c-1.3,0-2.3,1-2.3,2.3l0,0c0,1.3,1,2.3,2.3,2.3l0,0c1.3,0,2.3-1,2.3-2.3l0,0
		C165.9,184.5,164.9,183.5,163.6,183.5z"/>
	<path class="st0" d="M163.6,173.5L163.6,173.5c-1.3,0-2.3,1-2.3,2.3l0,0c0,1.3,1,2.3,2.3,2.3l0,0c1.3,0,2.3-1,2.3-2.3l0,0
		C165.9,174.4,164.9,173.5,163.6,173.5z"/>
	<rect x="123.1" y="173.5" class="st0" width="32.9" height="14.6"/>
	<path class="st0" d="M58.8,180.7H89c0.9,0,1.5,0.7,1.5,1.5l0,0c0,0.9-0.7,1.5-1.5,1.5H58.8c-0.9,0-1.5-0.7-1.5-1.5l0,0
		C57.2,181.4,57.9,180.7,58.8,180.7z"/>
	<path class="st0" d="M58.8,173.5H89c0.9,0,1.5,0.7,1.5,1.5l0,0c0,0.9-0.7,1.5-1.5,1.5H58.8c-0.9,0-1.5-0.7-1.5-1.5l0,0
		C57.2,174.1,57.9,173.5,58.8,173.5z"/>
	<circle class="st0" cx="74.3" cy="123.7" r="4.3"/>
	<circle class="st4" cx="75.7" cy="127.9" r="12.2"/>
</g>
<g id="right_disc">
	<g>
		<circle class="st6" cx="149.1" cy="127.3" r="27.2"/>
		<circle class="st4" cx="149.1" cy="127.3" r="6.4"/>
		<g>
			<path class="st4" d="M149.1,115.4L149.1,115.4c-1.2,0-2.2-1-2.2-2.2v-7.9c0-1.2,1-2.2,2.2-2.2l0,0c1.2,0,2.2,1,2.2,2.2v7.9
				C151.3,114.4,150.3,115.4,149.1,115.4z"/>
			<path class="st4" d="M149.1,151.5L149.1,151.5c-1.2,0-2.2-1-2.2-2.2v-7.9c0-1.2,1-2.2,2.2-2.2l0,0c1.2,0,2.2,1,2.2,2.2v7.9
				C151.3,150.5,150.3,151.5,149.1,151.5z"/>
		</g>
		<g>
			<path class="st4" d="M137.8,127.3L137.8,127.3c0,1.2-1,2.2-2.2,2.2h-7.9c-1.2,0-2.2-1-2.2-2.2l0,0c0-1.2,1-2.2,2.2-2.2h7.9
				C136.8,125.1,137.8,126.1,137.8,127.3z"/>
			<path class="st4" d="M172.7,127.3L172.7,127.3c0,1.2-1,2.2-2.2,2.2h-7.9c-1.2,0-2.2-1-2.2-2.2l0,0c0-1.2,1-2.2,2.2-2.2h7.9
				C171.7,125.1,172.7,126.1,172.7,127.3z"/>
		</g>
	</g>
</g>
<g id="left_disc">
	<g>
		<g>
			<path class="st7" d="M94.9,113.4c-3.3-4.3-8-7.6-13.8-8.9c-5.6-1.3-11.2-0.5-16,1.8l8.2,14.5c1.3-0.4,2.6-0.5,4-0.2
				c1.5,0.4,2.9,1.1,3.9,2.2L94.9,113.4z"/>
			<path class="st7" d="M68,126.7l-15.8-3.7c-1.6,7.7,0.5,14.4,4.8,19.8l12.1-10.6C68.1,130.7,67.6,129,68,126.7z"/>
			<path class="st7" d="M79.3,134.9l6.3,14.9c6.4-2.9,11.4-8.3,13.4-15.9l-16-3.7C82.4,132.4,81.1,133.9,79.3,134.9z"/>
			<path class="st6" d="M81.8,101.7c-14.5-3.3-28.9,5.7-32.3,20.1c-3.3,14.5,5.7,28.9,20.1,32.3c14.5,3.3,28.9-5.7,32.3-20.1
				C105.3,119.5,96.3,105.1,81.8,101.7z M57,142.9c-4.3-5.4-6.3-12.1-4.8-19.8l15.8,3.7c-0.4,2.2,0.1,4,1.1,5.6L57,142.9z
				 M73.3,120.8l-8.2-14.5c4.8-2.3,10.4-3.1,16-1.8c5.7,1.3,10.5,4.6,13.8,8.9l-13.7,9.5c-1-1.1-2.3-1.9-3.9-2.2
				C76,120.4,74.6,120.4,73.3,120.8z M85.6,149.8l-6.3-14.9c1.7-1,3.1-2.5,3.7-4.6l16,3.7C97,141.5,92,146.9,85.6,149.8z"/>
		</g>
		<circle class="st4" cx="75.7" cy="127.9" r="4.5"/>
	</g>
</g>
<g id="server">
	<rect x="482.1" y="60" class="st3" width="93.3" height="146.6"/>
	<rect x="488" y="65.2" class="st0" width="81.5" height="19.9"/>
	<rect x="488" y="91" class="st0" width="81.5" height="19.9"/>
	<!-- first circle -->
	<circle id="circ_one" fill="#43BD4C" cx="559.8" cy="75.2" r="4.7"/>
	<!-- second circle -->
	<circle id="circ_two" fill="#43BD4C" cx="560" cy="101" r="4.7"/>
	<path class="st3" d="M495.3,73.7h48.1c0.9,0,1.5,0.7,1.5,1.5l0,0c0,0.9-0.7,1.5-1.5,1.5h-48.1c-0.9,0-1.5-0.7-1.5-1.5l0,0
		C493.8,74.4,494.5,73.7,495.3,73.7z"/>
	<path class="st3" d="M495.7,99.4h47.9c0.9,0,1.5,0.7,1.5,1.5l0,0c0,0.9-0.7,1.5-1.5,1.5h-47.9c-0.9,0-1.5-0.7-1.5-1.5l0,0
		C494.2,100.1,494.9,99.4,495.7,99.4z"/>
	<rect x="488" y="116.7" class="st0" width="81.5" height="19.9"/>
	<!-- third circle -->
	<circle id="circ_three" fill="#43BD4C" cx="560" cy="126.7" r="4.7"/>
	<path class="st3" d="M495.7,125.2h47.9c0.9,0,1.5,0.7,1.5,1.5l0,0c0,0.9-0.7,1.5-1.5,1.5h-47.9c-0.9,0-1.5-0.7-1.5-1.5l0,0
		C494.2,125.8,494.9,125.2,495.7,125.2z"/>
	<rect x="488" y="144.3" class="st0" width="81.5" height="19.9"/>
	<!-- fourth circle -->
	<circle id="circ_four" fill="#43BD4C" cx="560" cy="154.2" r="4.7"/>
	<path class="st3" d="M495.7,152.7h47.9c0.9,0,1.5,0.7,1.5,1.5l0,0c0,0.9-0.7,1.5-1.5,1.5h-47.9c-0.9,0-1.5-0.7-1.5-1.5l0,0
		C494.2,153.4,494.9,152.7,495.7,152.7z"/>
	<rect x="488" y="171.2" class="st0" width="81.5" height="28.5"/>
	<path class="st3" d="M560,182.9L560,182.9c-1.4,0-2.5,1.1-2.5,2.5l0,0c0,1.4,1.1,2.5,2.5,2.5l0,0c1.4,0,2.5-1.1,2.5-2.5l0,0
		C562.5,184,561.3,182.9,560,182.9z"/>
	<path class="st3" d="M547,182.9L547,182.9c-1.4,0-2.5,1.1-2.5,2.5l0,0c0,1.4,1.1,2.5,2.5,2.5l0,0c1.4,0,2.5-1.1,2.5-2.5l0,0
		C549.5,184,548.3,182.9,547,182.9z"/>
	<path class="st3" d="M534,182.9L534,182.9c-1.4,0-2.5,1.1-2.5,2.5l0,0c0,1.4,1.1,2.5,2.5,2.5l0,0c1.4,0,2.5-1.1,2.5-2.5l0,0
		C536.5,184,535.3,182.9,534,182.9z"/>
</g>
</svg>
