<?xml version="1.0" encoding="utf-8"?>
<!-- Generator: Adobe Illustrator 19.2.1, SVG Export Plug-In . SVG Version: 6.00 Build 0)  -->
<svg version="1.1" xmlns="http://www.w3.org/2000/svg" xmlns:xlink="http://www.w3.org/1999/xlink" x="0px" y="0px"
	 viewBox="0 0 620 300" style="enable-background:new 0 0 620 300;" xml:space="preserve">
<g id="back">
	<g id="Layer_1_1_">
		<rect x="0.7" style="fill:#DCEEF4;" width="620" height="300"/>
	</g>
</g>
<g id="body">
	<g id="Layer_3" style="display:none;">
		<path style="display:inline;fill:#B52E31;" d="M337.7,62.3l25.2,6.7c-1-2.2-2.8-5.4-6-8.3c-7-6.3-15.5-6.5-17.9-6.4
			C338.6,56.9,338.1,59.6,337.7,62.3z"/>
		<polygon style="display:inline;fill:#ADAA36;" points="280.2,153.3 339,157.2 339,217.6 272,215.2 		"/>
		<path style="display:inline;fill:#EADC96;" d="M300,142.3c11.1,1.7,25.5-2.7,33.5-14.5c7.6-11.2,5.5-23.5,4.9-26.2
			c-23.4-1.4-46.9-2.8-70.3-4.2C267.3,120.8,282.3,139.6,300,142.3z"/>
		<path style="display:inline;fill:#967432;" d="M315.1,98.1c-0.5,5.1-29.8,6.5-53.7,2.5c-8.3-1.4-8.7-2.2-8.8-2.7
			c-0.5-3.8,24.9-14.6,48.7-7.2C304.5,91.6,315.4,94.9,315.1,98.1z"/>
		<ellipse style="display:inline;fill:#383836;" cx="310.5" cy="111" rx="2.9" ry="3.6"/>
		<ellipse style="display:inline;fill:#383836;" cx="284.2" cy="109.9" rx="2.9" ry="3.6"/>
		<circle style="display:inline;fill:#E8C597;" cx="322.9" cy="124.2" r="7.1"/>
		<circle style="display:inline;fill:#EADC96;" cx="218.9" cy="126" r="7.1"/>
		<path style="display:inline;fill:#F4F2EA;" d="M309.7,127.1c0,0.9-0.1,4-2.4,6.7c-2.4,2.8-5.8,3.4-7.9,3.3
			c-5-0.2-9.8-4.6-11.4-11.2L309.7,127.1z"/>
		<polygon style="display:inline;fill:#52A89F;" points="326.8,97.3 323.2,112.3 341.4,114.5 337.3,88.9 		"/>
		<path style="display:inline;fill:#6DB5AC;" d="M267.6,84.7c5-24.5,29.8-38,49.6-31.3c16.7,5.6,28,25,24,45.3L267.6,84.7z"/>
		<polygon style="display:inline;fill:#4D8783;" points="342.7,101.7 255.5,90.9 251.7,72.4 345.2,96.7 		"/>
		<path style="display:inline;fill:#89682E;" d="M330.1,102.3c-1.5,3.6-28.9,0.7-39.4-16.8c-1.4-2.3-3.7-6.2-2.5-7.6
			C292.3,73.3,332.2,97.5,330.1,102.3z"/>
		<polygon style="display:inline;fill:#D8D839;" points="277.4,144 332,147.9 332,208.3 269.9,205.9 		"/>
		<g style="display:inline;">
			<polygon style="fill:#DBDBDB;" points="225.4,112.2 202.5,118.3 200.7,111.2 223.6,105.1 			"/>
			<polygon style="fill:#D8D6D2;" points="193.4,54.4 208.7,116.5 213.9,115.1 198.5,53.1 196.9,46.5 			"/>
			<polygon style="fill:#DBDBDB;" points="203.7,51.7 219,113.7 213.9,115.1 198.5,53.1 196.9,46.5 			"/>
		</g>
		<polygon style="display:inline;fill:#D8D839;" points="279.3,216.9 270.1,240.7 277.5,242.6 286,218.6 		"/>
		<path style="display:inline;fill:#52A89F;" d="M248.4,250.5l20,9.8l8-15.8l-7.3-2.6l-3.8,9.2C265.4,251.1,257.7,242.5,248.4,250.5
			z"/>
		<path style="display:inline;fill:#D8D839;" d="M341.3,63.4"/>
		<path style="display:inline;fill:#E23237;" d="M351.5,81.8c0,0,1.1-15.7-12.5-27.5l-6.3,5.5L351.5,81.8z"/>
		<path style="display:inline;fill:#E23237;" d="M359.6,45.6c-3-0.3-6.5-0.5-10.5-0.1c-10,1-17.6,5-21.9,7.9
			c1.9,2.1,3.8,4.3,5.7,6.4C341.7,55,350.6,50.3,359.6,45.6z"/>
	</g>
	<g id="Layer_2" style="display:none;">
		<path style="display:inline;fill:#B2B2B2;" d="M325.8,159.5"/>
		<g style="display:inline;">
			<g>
				<path style="fill:#B52E31;" d="M357.8,164.7l-30.9-0.7l20.3,64.1l19.9-21c0.8-0.8,1.1-2,0.9-3.2l-6.7-36.3
					C361,165.9,359.6,164.7,357.8,164.7z"/>
				<path style="fill:#E23237;" d="M301.6,186.7l15.1,33.7c0.5,1.1,1.5,1.8,2.6,2.1l27.9,5.6L326.9,164l-24.1,18.3
					C301.4,183.3,300.9,185.2,301.6,186.7z"/>
			</g>
			<path style="fill:#F2F2F2;" d="M344.1,193.6l-11.7-12.5l-1.5,16.7L344.1,193.6z M348.7,198.9l-18.7,5.9l-0.9,11.8l-7.7,2.6
				l6.1-52.9l36.2,39.5l-7.2,2.3L348.7,198.9z"/>
			<path style="fill:#B2B2B2;" d="M327.6,166.3l4.8,14.8l11.7,12.5l-7.1,2.2l1.9,6.2l9.8-3.1l7.9,9.1l7.5-2.2L327.6,166.3z"/>
		</g>
		
			<rect x="242.1" y="122.9" transform="matrix(0.587 -0.8096 0.8096 0.587 -17.7507 261.5498)" style="display:inline;fill:#D8D839;" width="10.7" height="50.6"/>
		
			<rect x="229.3" y="134.4" transform="matrix(0.587 -0.8096 0.8096 0.587 -15.4761 247.3236)" style="display:inline;fill:#ADAA36;" width="10.7" height="8.9"/>
		
			<rect x="243.4" y="144.6" transform="matrix(0.587 -0.8096 0.8096 0.587 -17.954 262.9414)" style="display:inline;fill:#ADAA36;" width="10.7" height="8.9"/>
		
			<rect x="259" y="155.9" transform="matrix(0.587 -0.8096 0.8096 0.587 -20.6613 280.2424)" style="display:inline;fill:#ADAA36;" width="10.7" height="8.9"/>
		<path style="display:inline;fill:#D8D839;" d="M310.1,217.7c-0.4,8-0.9,16-1.3,24c-1.9,0-3.8,0-5.7,0c-0.1-7.7-0.2-15.3-0.3-23
			C305.2,218.3,307.6,218,310.1,217.7z"/>
		<path style="display:inline;fill:#52A89F;" d="M302,255.9v-13.1c3,0.2,5.3,0.2,7.9,0.4l-0.8,17.8h-23
			C286.1,261,291,251.6,302,255.9z"/>
	</g>
	<polygon style="fill:#CEC125;" points="276.4,198.9 359,204.4 359,289 264.9,285.7 	"/>
	<polygon style="fill:#E8DE21;" points="272.3,185.9 349,191.3 349,276 261.8,272.6 	"/>
	<path style="fill:#D8D839;" d="M361.9,72.7"/>
	<path style="fill:#B2B2B2;" d="M340.1,207.6"/>
</g>
<g id="plume">
	<g>
		<path style="fill:#B52E31;" d="M356.9,71.1l35.3,9.5c-1.4-3.1-3.9-7.6-8.4-11.7c-9.8-8.8-21.7-9.1-25-9
			C358.1,63.6,357.5,67.4,356.9,71.1z"/>
		<path style="fill:#E23237;" d="M376.2,98.5c0,0,1.6-22-17.5-38.6l-8.8,7.7L376.2,98.5z"/>
		<path style="fill:#E23237;" d="M387.6,47.7c-4.2-0.5-9.2-0.7-14.7-0.1c-14.1,1.5-24.6,7.1-30.8,11c2.6,3,5.3,6,7.9,9
			C362.5,61,375,54.3,387.6,47.7z"/>
	</g>
</g>
<g id="head">
	<path style="fill:#EADC96;" d="M303.9,183.4c15.6,2.4,35.8-3.8,47-20.4c10.6-15.8,7.7-32.9,6.9-36.8c-32.9-2-65.8-4-98.7-6
		C258.2,153.3,279.1,179.6,303.9,183.4z"/>
	<path style="fill:#967432;" d="M325.1,121.4c-0.7,7.1-41.8,9.1-75.3,3.5c-11.6-2-12.2-3.2-12.3-3.7c-0.6-5.3,34.9-20.4,68.4-10.1
		C310.3,112.3,325.5,117,325.1,121.4z"/>
	<circle style="fill:#E8C597;" cx="336.1" cy="158" r="9.9"/>
	<path style="fill:#89682E;" d="M357.9,133.4c-2.4,5.5-44.4,1-60.5-25.6c-2.1-3.4-5.7-9.5-3.8-11.6
		C299.7,89.2,361,126.1,357.9,133.4z"/>
	<polygon style="fill:#52A89F;" points="344.5,122.2 339.5,143.3 365.1,146.5 359.3,110.5 	"/>
	<path style="fill:#6DB5AC;" d="M258.5,102.6c7-34.4,41.8-53.3,69.6-44c23.5,7.9,39.3,35.1,33.7,63.6L258.5,102.6z"/>
	<polygon style="fill:#4D8783;" points="363.9,126.5 241.5,111.3 236.2,85.3 367.5,119.4 	"/>
</g>
<g id="mouth">
	<path style="fill:#F4F2EA;" d="M317.5,162.1c0,1.2-0.1,5.6-3.4,9.4c-3.4,3.9-8.2,4.8-11.1,4.7c-7-0.3-13.8-6.5-16-15.6L317.5,162.1
		z"/>
</g>
<g id="eye_1">
	<ellipse style="fill:#383836;" cx="281.8" cy="138" rx="4.1" ry="5"/>
</g>
<g id="eye_2">
	<ellipse style="fill:#383836;" cx="318.7" cy="139.5" rx="4.1" ry="5"/>
</g>
<g id="shield">
	<path style="fill:#B52E31;" d="M391.9,186.1c-16.4,0.6-32.9,1.3-49.3,1.9c12.8,33.3,25.7,66.7,38.5,100l29.6-35.3
		c1.2-1.4,1.6-3.3,1.2-5.1l-14.1-57.1C397.1,187.8,394.6,186,391.9,186.1z"/>
	<path style="fill:#E23237;" d="M304.9,226.5l27.3,52.2c0.9,1.7,2.5,2.8,4.4,3.1c15,2.1,30,4.2,44.9,6.3
		c-12.9-33.4-25.7-66.8-38.6-100.2l-36.7,31.5C304.2,221.1,303.6,224.1,304.9,226.5z"/>
	<path style="fill:#F2F2F2;" d="M373.1,233.5l-19.8-18.7l-0.8,26.7L373.1,233.5z M381.1,241.5L352,252.7l-0.2,18.8l-12,4.9l4.6-84.8
		l61.5,59.3l-11.2,4.3L381.1,241.5z"/>
	<path style="fill:#B2B2B2;" d="M344.3,191.6l9,23.1l19.8,18.7l-11,4.3l3.7,9.6l15.3-5.9l13.5,13.8l11.7-4.3L344.3,191.6z"/>
</g>
<g id="sword">
	<g>
		<polygon style="fill:#DBDBDB;" points="201.3,138.2 169.2,146.7 166.7,136.7 198.8,128.2 		"/>
		<polygon style="fill:#D8D6D2;" points="156.4,57.1 177.9,144.2 185.1,142.3 163.6,55.2 161.3,45.9 		"/>
		<polygon style="fill:#DBDBDB;" points="170.9,53.3 192.4,140.3 185.1,142.3 163.6,55.2 161.3,45.9 		"/>
	</g>
</g>
<g id="hand">
	<circle style="fill:#EADC96;" cx="190.2" cy="158.5" r="9.9"/>
</g>
<g id="arm">
	<g>
		
			<rect x="222.7" y="154.1" transform="matrix(0.587 -0.8096 0.8096 0.587 -58.4064 264.7062)" style="fill:#E8DE21;" width="15" height="70.9"/>
		<path style="fill:#CEC125;" d="M214.2,187.3c-3.8-2.7-7.6-5.5-11.4-8.2l8.8-12.2l10.1,7.3C219.3,178.5,216.8,182.9,214.2,187.3z"
			/>
		<path style="fill:#CEC125;" d="M231.5,199.8c-3-2.2-5.9-4.3-8.9-6.5l8.8-12.2c3.7,2.7,7.3,5.4,11,8
			C238.7,192.7,235.1,196.2,231.5,199.8z"/>
		<path style="fill:#CEC125;" d="M254.6,216.5l-10.1-7.3c2.4-4.4,4.9-8.9,7.3-13.3c3.9,2.8,7.7,5.7,11.6,8.5L254.6,216.5z"/>
	</g>
</g>
</svg>
