<?xml version="1.0" encoding="utf-8"?>
<!-- Generator: Adobe Illustrator 19.2.1, SVG Export Plug-In . SVG Version: 6.00 Build 0)  -->
<svg version="1.1" xmlns="http://www.w3.org/2000/svg" xmlns:xlink="http://www.w3.org/1999/xlink" x="0px" y="0px"
	 viewBox="0 0 620 300" style="enable-background:new 0 0 620 300;" xml:space="preserve">
<g id="back">
	<rect style="fill:#5D5284;" width="620" height="300"/>
	<path style="fill:#6F669E;" d="M562.3,300c21.6-40.8,33.8-87.4,33.8-137c0-60.4-18.2-116.5-49.4-163H71
		C39.8,46.5,21.6,102.6,21.6,163c0,49.5,12.2,96.2,33.8,137H562.3z"/>
	<path style="fill:#9187AF;" d="M462.2,300c31.8-36.5,51.2-84.4,51.2-137c0-66.2-30.7-125.1-78.5-163H182.8
		c-47.8,37.9-78.5,96.8-78.5,163c0,52.5,19.3,100.5,51.2,137H462.2z"/>
</g>
<g id="postbox">
	<path style="fill:#DDB77F;" d="M356.3,264l8.6-96c0.2-1.9,1.9-3.4,3.8-3.2l11.9,1.1c1.9,0.2,3.4,1.9,3.2,3.8l-8.6,96
		c-0.2,1.9-1.9,3.4-3.8,3.2l-11.9-1.1C357.5,267.7,356.1,266,356.3,264z"/>
	<path style="fill:#C9A26F;" d="M356.2,265.1l8.8-98.2c0.1-1.3,1.3-2.3,2.6-2.2l4,0.4c1.3,0.1,2.3,1.3,2.2,2.6l-8.8,98.2
		c-0.1,1.3-1.3,2.3-2.6,2.2l-4-0.4C357,267.6,356.1,266.5,356.2,265.1z"/>
	<path style="fill:#C43D3D;" d="M403.1,167.9l-62.6-5.6c-22.1-2-38.3-21.5-36.4-43.5v0c2-22.1,21.5-38.3,43.5-36.4l62.6,5.6
		c22.1,2,38.3,21.5,36.4,43.5v0C444.7,153.6,425.2,169.9,403.1,167.9z"/>
	<path style="fill:#C43D3D;" d="M307.9,159.4l127.7,11.5c4.1,0.4,7.7-2.6,8-6.7l2.6-29c0.4-4.1-2.6-7.7-6.7-8l-127.7-11.5
		c-4.1-0.4-7.7,2.6-8,6.7l-2.6,29C300.9,155.4,303.9,159,307.9,159.4z"/>
	<path style="fill:#A32828;" d="M377.3,124.4c1.6-17.9-11.5-33.1-29.9-34.7l0.3,0c-18.4-1.7-34.3,10.9-35.9,28.8l-0.2,2.4
		c0,0,0,0.1,0,0.1c0,0,0,0,0,0l-2.5,27.7c-0.2,2.5,1.3,3.6,3.9,3.8l28.7,2.6l0,0l28.7,2.6c2.6,0.2,4-0.6,4.2-3.1L377,127
		c0,0,0,0,0,0c0,0,0-0.1,0-0.1L377.3,124.4z"/>
	<path style="fill:#DDB77F;" d="M445.5,184l-150.5-13.5c-1.9-0.2-3.3-1.9-3.2-3.8l0.5-5.2c0.2-1.9,1.9-3.3,3.8-3.2l150.5,13.5
		c1.9,0.2,3.3,1.9,3.2,3.8l-0.5,5.2C449.1,182.7,447.4,184.2,445.5,184z"/>
</g>
<g id="flag">
	<g>
		<path style="fill:#F2F3E7;" d="M462.6,127.5c0.2-2.6-1.7-4.9-4.3-5.1l-61.7-5.5c-2.6-0.2-4.9,1.7-5.1,4.3l-0.1,0.6
			c-0.2,2.6,1.7,4.9,4.3,5.1l50.7,4.6l-0.6,6.6c-0.3,2.8,1.8,5.3,4.6,5.6l5.4,0.5c2.8,0.3,5.3-1.8,5.6-4.6l1-11.5c0,0,0,0,0,0
			L462.6,127.5z"/>
	</g>
</g>
<g id="Layer_4">
	<g>
		<g>
			<!-- <path style="fill:none;stroke:#F2F3E7;stroke-width:2;stroke-miterlimit:10;" d="M-42.3,247.6c2.2-0.4,4.6-1,7.3-1.6"/> -->
<!-- 			<path style="fill:none;stroke:#F2F3E7;stroke-width:2;stroke-miterlimit:10;stroke-dasharray:14.8374,14.8374;" d="M-20.6,242.5
				c5.6-1.5,11.8-3.3,18.4-5.3c21.6-6.8,169.4-53.7,177.7-136.4c0.2-2,3.3-38.3-21.1-59.1c-20.9-17.7-57.5-20-82.7,0
				c-25.5,20.2-24.1,53.9-23.6,65c1.3,32.6,19.7,54.5,26.4,62.2c27.9,32.1,65.9,38.6,81.9,41.4c74.9,12.8,139.8-33.5,166.2-55.9"/> -->
			<!-- <path style="fill:none;stroke:#F2F3E7;stroke-width:2;stroke-miterlimit:10;" d="M328,149.5c2.5-2.2,4.3-4,5.5-5.1"/> -->
		</g>
	</g>
</g>
</svg>
