<?xml version="1.0" encoding="utf-8"?>
<!-- Generator: Adobe Illustrator 19.2.1, SVG Export Plug-In . SVG Version: 6.00 Build 0)  -->
<svg version="1.1" xmlns="http://www.w3.org/2000/svg" xmlns:xlink="http://www.w3.org/1999/xlink" x="0px" y="0px"
	 viewBox="0 0 620 300" style="enable-background:new 0 0 620 300;" xml:space="preserve">
<g id="back">
	<rect style="fill:#5D5284;" width="620" height="300"/>
	<path style="fill:#6F669E;" d="M562.3,300c21.6-40.8,33.8-87.4,33.8-137c0-60.4-18.2-116.5-49.4-163H71
		C39.8,46.5,21.6,102.6,21.6,163c0,49.5,12.2,96.2,33.8,137H562.3z"/>
	<path style="fill:#9187AF;" d="M462.2,300c31.8-36.5,51.2-84.4,51.2-137c0-66.2-30.7-125.1-78.5-163H182.8
		c-47.8,37.9-78.5,96.8-78.5,163c0,52.5,19.3,100.5,51.2,137H462.2z"/>
</g>
<g id="postbox">
	<path style="fill:#DDB77F;" d="M361.3,263l8.6-96c0.2-1.9,1.9-3.4,3.8-3.2l11.9,1.1c1.9,0.2,3.4,1.9,3.2,3.8l-8.6,96
		c-0.2,1.9-1.9,3.4-3.8,3.2l-11.9-1.1C362.5,266.7,361.1,265,361.3,263z"/>
	<path style="fill:#C9A26F;" d="M361.2,264.1l8.8-98.2c0.1-1.3,1.3-2.3,2.6-2.2l4,0.4c1.3,0.1,2.3,1.3,2.2,2.6l-8.8,98.2
		c-0.1,1.3-1.3,2.3-2.6,2.2l-4-0.4C362,266.6,361.1,265.5,361.2,264.1z"/>
	<path style="fill:#C43D3D;" d="M408.1,166.9l-62.6-5.6c-22.1-2-38.3-21.5-36.4-43.5v0c2-22.1,21.5-38.3,43.5-36.4l62.6,5.6
		c22.1,2,38.3,21.5,36.4,43.5v0C449.7,152.6,430.2,168.9,408.1,166.9z"/>
	<path style="fill:#C43D3D;" d="M312.9,158.4l127.7,11.5c4.1,0.4,7.7-2.6,8-6.7l2.6-29c0.4-4.1-2.6-7.7-6.7-8l-127.7-11.5
		c-4.1-0.4-7.7,2.6-8,6.7l-2.6,29C305.9,154.4,308.9,158,312.9,158.4z"/>
	<path style="fill:#A32828;" d="M382.3,123.4c1.6-17.9-11.5-33.1-29.9-34.7l0.3,0c-18.4-1.7-34.3,10.9-35.9,28.8l-0.2,2.4
		c0,0,0,0.1,0,0.1c0,0,0,0,0,0l-2.5,27.7c-0.2,2.5,1.3,3.6,3.9,3.8l28.7,2.6l0,0l28.7,2.6c2.6,0.2,4-0.6,4.2-3.1L382,126
		c0,0,0,0,0,0c0,0,0-0.1,0-0.1L382.3,123.4z"/>
	<path style="fill:#DDB77F;" d="M450.5,183l-150.5-13.5c-1.9-0.2-3.3-1.9-3.2-3.8l0.5-5.2c0.2-1.9,1.9-3.3,3.8-3.2l150.5,13.5
		c1.9,0.2,3.3,1.9,3.2,3.8l-0.5,5.2C454.1,181.7,452.4,183.2,450.5,183z"/>
</g>
<g id="flag">
	<g>
		<path style="fill:#F2F3E7;" d="M467.6,126.5c0.2-2.6-1.7-4.9-4.3-5.1l-61.7-5.5c-2.6-0.2-4.9,1.7-5.1,4.3l-0.1,0.6
			c-0.2,2.6,1.7,4.9,4.3,5.1l50.7,4.6l-0.6,6.6c-0.3,2.8,1.8,5.3,4.6,5.6l5.4,0.5c2.8,0.3,5.3-1.8,5.6-4.6l1-11.5c0,0,0,0,0,0
			L467.6,126.5z"/>
	</g>
</g>
<g id="mail">
	<rect x="-81.4" y="247" style="fill:#F2F3E7;" width="62.9" height="38.1"/>
	<polygon style="fill:#98E2E0;" points="-81.4,247 -50,266 -18.5,247 	"/>
</g>
</svg>
